<?xml version="1.0" encoding="UTF-8"?>
<svg width="1243.4645669439" height="1243.4645669439" viewBox="0 0 1243.4645669439 1243.4645669439" version="1.1" xmlns="http://www.w3.org/2000/svg" xmlns:xlink="http://www.w3.org/1999/xlink">
 <path d="M1061.36,182.1 c242.8,242.8,242.8,636.46,0,879.26 c-242.8,242.8,-636.46,242.8,-879.26,0 c-242.8,-242.8,-242.8,-636.46,-0.0,-879.26 c242.8,-242.8,636.46,-242.8,879.26,-0.0 Z M1061.36,182.1" fill="none" stroke="rgb(255,0,0)" stroke-width="0.5" transform="matrix(1,0,0,-1,0.0,1243.4645669439)"/>
 <path d="M759.37,484.1 c76.01,76.01,76.01,199.26,0,275.27 c-76.01,76.01,-199.26,76.01,-275.27,0 c-76.01,-76.01,-76.01,-199.26,-0.0,-275.27 c76.01,-76.01,199.26,-76.01,275.27,-0.0 Z M759.37,484.1" fill="none" stroke="rgb(255,0,0)" stroke-width="0.5" transform="matrix(1,0,0,-1,0.0,1243.4645669439)"/>
 <path d="M721.95,521.51 c55.35,55.35,55.35,145.09,0,200.44 c-55.35,55.35,-145.09,55.35,-200.44,0 c-55.35,-55.35,-55.35,-145.09,0,-200.44 c55.35,-55.35,145.09,-55.35,200.44,0 Z M721.95,521.51" fill="none" stroke="rgb(255,0,0)" stroke-width="0.5" transform="matrix(1,0,0,-1,0.0,1243.4645669439)"/>
 <text text-anchor="start" transform="matrix(0.8782268507301066,-0.4782442876362238,0.4782442876362238,0.8782268507301066,-68.38715678382323,-641.3908489112763)">
  <tspan fill="rgb(0,0,0)" font-family="Courier" font-size="30" x="0" y="1200.46">
   G
  </tspan>
 </text>
 <text text-anchor="start" transform="matrix(0.958468065408042,-0.2851998730591679,0.2851998730591679,0.958468065408042,209.3116749308295,-757.2724775898556)">
  <tspan fill="rgb(0,0,0)" font-family="Courier" font-size="30" x="0" y="1200.46">
   R
  </tspan>
 </text>
 <text text-anchor="start" transform="matrix(0.9968196263875905,-0.07969085548859811,0.07969085548859811,0.9968196263875905,505.03526625237737,-812.8849810110236)">
  <tspan fill="rgb(0,0,0)" font-family="Courier" font-size="30" x="0" y="1200.46">
   Ã
  </tspan>
 </text>
 <text text-anchor="start" transform="matrix(0.9916053864227383,0.12930103486597427,-0.12930103486597427,0.9916053864227383,805.859077200837,-805.7978259168766)">
  <tspan fill="rgb(0,0,0)" font-family="Courier" font-size="30" x="0" y="1200.46">
   O
  </tspan>
 </text>
 <text text-anchor="start" transform="matrix(0.9430532328206491,0.33264184954169973,-0.33264184954169973,0.9430532328206491,1098.6356637249605,-736.3207549929724)">
  <tspan fill="rgb(0,0,0)" font-family="Courier" font-size="30" x="0" y="1200.46">
   ∙
  </tspan>
 </text>
 <text text-anchor="start" transform="matrix(0.8532851276728152,0.5214446191997648,-0.5214446191997648,0.8532851276728152,1370.5692840957122,-607.49024962666)">
  <tspan fill="rgb(0,0,0)" font-family="Courier" font-size="30" x="0" y="1200.46">
   L
  </tspan>
 </text>
 <text text-anchor="start" transform="matrix(0.7262243679293576,0.6874577568299054,-0.6874577568299054,0.7262243679293576,1609.7751342206034,-424.9368210998007)">
  <tspan fill="rgb(0,0,0)" font-family="Courier" font-size="30" x="0" y="1200.46">
   É
  </tspan>
 </text>
 <text text-anchor="start" transform="matrix(0.5674241184962361,0.8234256916982671,-0.8234256916982671,0.5674241184962361,1805.7987706121576,-196.63893022755713)">
  <tspan fill="rgb(0,0,0)" font-family="Courier" font-size="30" x="0" y="1200.46">
   O
  </tspan>
 </text>
 <text text-anchor="start" transform="matrix(0.3838247122818179,0.9234059726045634,-0.9234059726045634,0.3838247122818179,1950.073019734296,67.42570966413024)">
  <tspan fill="rgb(0,0,0)" font-family="Courier" font-size="30" x="0" y="1200.46">
   
  </tspan>
 </text>
 <text text-anchor="start" transform="matrix(0.18345032434537134,0.9830289815145727,-0.9830289815145727,0.18345032434537134,2036.2924045957234,355.71620668926624)">
  <tspan fill="rgb(0,0,0)" font-family="Courier" font-size="30" x="0" y="1200.46">
   D
  </tspan>
 </text>
 <text text-anchor="start" transform="matrix(-0.024941723057291587,0.9996889068359884,-0.9996889068359884,-0.024941723057291587,2060.6887243514852,655.6328827565668)">
  <tspan fill="rgb(0,0,0)" font-family="Courier" font-size="30" x="0" y="1200.46">
   E
  </tspan>
 </text>
 <text text-anchor="start" transform="matrix(-0.2322436974786845,0.9726576298890732,-0.9726576298890732,-0.2322436974786845,2022.1957427617237,954.0679399620051)">
  <tspan fill="rgb(0,0,0)" font-family="Courier" font-size="30" x="0" y="1200.46">
   
  </tspan>
 </text>
 <text text-anchor="start" transform="matrix(-0.4293955078913545,0.9031165471868656,-0.9031165471868656,-0.4293955078913545,1922.4957878317307,1237.9783342554165)">
  <tspan fill="rgb(0,0,0)" font-family="Courier" font-size="30" x="0" y="1200.46">
   P
  </tspan>
 </text>
 <text text-anchor="start" transform="matrix(-0.6077806741409205,0.794104937738589,-0.794104937738589,-0.6077806741409205,1765.946226005409,1494.955819052957)">
  <tspan fill="rgb(0,0,0)" font-family="Courier" font-size="30" x="0" y="1200.46">
   A
  </tspan>
 </text>
 <text text-anchor="start" transform="matrix(-0.7596029084752776,0.6503871319728731,-0.6503871319728731,-0.7596029084752776,1559.3890243427131,1713.7692451541884)">
  <tspan fill="rgb(0,0,0)" font-family="Courier" font-size="30" x="0" y="1200.46">
   U
  </tspan>
 </text>
 <text text-anchor="start" transform="matrix(-0.8782268507301065,0.4782442876362239,-0.4782442876362239,-0.8782268507301065,1311.8517237277238,1884.8554158551763)">
  <tspan fill="rgb(0,0,0)" font-family="Courier" font-size="30" x="0" y="1200.46">
   L
  </tspan>
 </text>
 <text text-anchor="start" transform="matrix(-0.9584680654080421,0.2851998730591677,-0.2851998730591677,-0.9584680654080421,1034.1528920130704,2000.7370445337558)">
  <tspan fill="rgb(0,0,0)" font-family="Courier" font-size="30" x="0" y="1200.46">
   A
  </tspan>
 </text>
 <text text-anchor="start" transform="matrix(-0.9916053864227383,-0.1293010348659756,0.1293010348659756,-0.9916053864227383,437.6054897430611,2049.2623928607763)">
  <tspan fill="rgb(0,0,0)" font-family="Courier" font-size="30" x="0" y="1200.46">
   0
  </tspan>
 </text>
 <text text-anchor="start" transform="matrix(-0.943053232820648,-0.3326418495417024,0.3326418495417024,-0.943053232820648,144.8289032189361,1979.785321936871)">
  <tspan fill="rgb(0,0,0)" font-family="Courier" font-size="30" x="0" y="1200.46">
   1
  </tspan>
 </text>
 <text text-anchor="start" transform="matrix(-0.8532851276728151,-0.5214446191997648,0.5214446191997648,-0.8532851276728151,-127.10471715181222,1850.9548165705598)">
  <tspan fill="rgb(0,0,0)" font-family="Courier" font-size="30" x="0" y="1200.46">
   ∙
  </tspan>
 </text>
 <text text-anchor="start" transform="matrix(-0.7262243679293579,-0.6874577568299051,0.6874577568299051,-0.7262243679293579,-366.3105672767027,1668.401388043701)">
  <tspan fill="rgb(0,0,0)" font-family="Courier" font-size="30" x="0" y="1200.46">
   S
  </tspan>
 </text>
 <text text-anchor="start" transform="matrix(-0.5674241184962368,-0.8234256916982665,0.8234256916982665,-0.5674241184962368,-562.3342036682566,1440.103497171458)">
  <tspan fill="rgb(0,0,0)" font-family="Courier" font-size="30" x="0" y="1200.46">
   E
  </tspan>
 </text>
 <text text-anchor="start" transform="matrix(-0.3838247122818195,-0.9234059726045628,0.9234059726045628,-0.3838247122818195,-706.608452790395,1176.0388572797722)">
  <tspan fill="rgb(0,0,0)" font-family="Courier" font-size="30" x="0" y="1200.46">
   R
  </tspan>
 </text>
 <text text-anchor="start" transform="matrix(-0.1834503243453734,-0.9830289815145724,0.9830289815145724,-0.1834503243453734,-792.8278376518231,887.7483602546367)">
  <tspan fill="rgb(0,0,0)" font-family="Courier" font-size="30" x="0" y="1200.46">
   P
  </tspan>
 </text>
 <text text-anchor="start" transform="matrix(0.024941723057288534,-0.9996889068359884,0.9996889068359884,0.024941723057288534,-817.2241574075853,587.8316841873378)">
  <tspan fill="rgb(0,0,0)" font-family="Courier" font-size="30" x="0" y="1200.46">
   E
  </tspan>
 </text>
 <text text-anchor="start" transform="matrix(0.23224369747868107,-0.9726576298890741,0.9726576298890741,0.23224369747868107,-778.7311758178248,289.39662698189983)">
  <tspan fill="rgb(0,0,0)" font-family="Courier" font-size="30" x="0" y="1200.46">
   N
  </tspan>
 </text>
 <text text-anchor="start" transform="matrix(0.42939550789135095,-0.9031165471868672,0.9031165471868672,0.42939550789135095,-679.0312208878329,5.4862326884887125)">
  <tspan fill="rgb(0,0,0)" font-family="Courier" font-size="30" x="0" y="1200.46">
   T
  </tspan>
 </text>
 <text text-anchor="start" transform="matrix(0.6077806741409166,-0.7941049377385919,0.7941049377385919,0.6077806741409166,-522.481659061513,-251.49125210905135)">
  <tspan fill="rgb(0,0,0)" font-family="Courier" font-size="30" x="0" y="1200.46">
   E
  </tspan>
 </text>
 <text text-anchor="start" transform="matrix(0.8782268507300987,-0.4782442876362385,0.4782442876362385,0.8782268507300987,-89.90814972747455,-680.9110571941195)">
  <tspan fill="rgb(0,0,0)" font-family="Courier" font-size="30" x="0" y="1200.46">
   0
  </tspan>
 </text>
 <text text-anchor="start" transform="matrix(0.9584680654080385,-0.2851998730591794,0.2851998730591794,0.9584680654080385,196.4776806431496,-800.4035405332122)">
  <tspan fill="rgb(0,0,0)" font-family="Courier" font-size="30" x="0" y="1200.46">
   2
  </tspan>
 </text>
 <text text-anchor="start" transform="matrix(0.9968196263875896,-0.07969085548860905,0.07969085548860905,0.9968196263875896,501.4491777553738,-857.7418641984636)">
  <tspan fill="rgb(0,0,0)" font-family="Courier" font-size="30" x="0" y="1200.46">
   ∙
  </tspan>
 </text>
 <text text-anchor="start" transform="matrix(0.99160538642274,0.12930103486596112,-0.12930103486596112,0.99160538642274,811.6776237697868,-850.4200683059023)">
  <tspan fill="rgb(0,0,0)" font-family="Courier" font-size="30" x="0" y="1200.46">
   V
  </tspan>
 </text>
 <text text-anchor="start" transform="matrix(0.9430532328206518,0.332641849541692,-0.332641849541692,0.9430532328206518,1113.604546954325,-778.7581504699058)">
  <tspan fill="rgb(0,0,0)" font-family="Courier" font-size="30" x="0" y="1200.46">
   E
  </tspan>
 </text>
 <text text-anchor="start" transform="matrix(0.853285127672819,0.5214446191997584,-0.5214446191997584,0.853285127672819,1394.034291959692,-645.8880803719426)">
  <tspan fill="rgb(0,0,0)" font-family="Courier" font-size="30" x="0" y="1200.46">
   N
  </tspan>
 </text>
 <text text-anchor="start" transform="matrix(0.7262243679293641,0.6874577568298983,-0.6874577568298983,0.7262243679293641,1640.710733277939,-457.6169176566309)">
  <tspan fill="rgb(0,0,0)" font-family="Courier" font-size="30" x="0" y="1200.46">
   T
  </tspan>
 </text>
 <text text-anchor="start" transform="matrix(0.5674241184962429,0.8234256916982623,-0.8234256916982623,0.5674241184962429,1842.8529267385727,-222.17301555989746)">
  <tspan fill="rgb(0,0,0)" font-family="Courier" font-size="30" x="0" y="1200.46">
   A
  </tspan>
 </text>
 <text text-anchor="start" transform="matrix(0.3838247122818215,0.923405972604562,-0.923405972604562,0.3838247122818215,1991.626288501499,50.15359761144259)">
  <tspan fill="rgb(0,0,0)" font-family="Courier" font-size="30" x="0" y="1200.46">
   N
  </tspan>
 </text>
 <text text-anchor="start" transform="matrix(0.18345032434537378,0.9830289815145723,-0.9830289815145723,0.18345032434537378,2080.5287087638785,347.4609420937204)">
  <tspan fill="rgb(0,0,0)" font-family="Courier" font-size="30" x="0" y="1200.46">
   I
  </tspan>
 </text>
 <text text-anchor="start" transform="matrix(-0.024941723057286425,0.9996889068359885,-0.9996889068359885,-0.024941723057286425,2105.674725159105,656.7552602941377)">
  <tspan fill="rgb(0,0,0)" font-family="Courier" font-size="30" x="0" y="1200.46">
   A
  </tspan>
 </text>
 <text text-anchor="start" transform="matrix(-0.23224369747868417,0.9726576298890733,-0.9726576298890733,-0.23224369747868417,2065.965336106732,964.518906348545)">
  <tspan fill="rgb(0,0,0)" font-family="Courier" font-size="30" x="0" y="1200.46">
   
  </tspan>
 </text>
 <text text-anchor="start" transform="matrix(-0.42939550789135533,0.903116547186865,-0.903116547186865,-0.42939550789135533,1963.1360324551392,1257.3011321105282)">
  <tspan fill="rgb(0,0,0)" font-family="Courier" font-size="30" x="0" y="1200.46">
   S
  </tspan>
 </text>
 <text text-anchor="start" transform="matrix(-0.6077806741409192,0.79410493773859,-0.79410493773859,-0.6077806741409192,1801.6809482036465,1522.3059493892968)">
  <tspan fill="rgb(0,0,0)" font-family="Courier" font-size="30" x="0" y="1200.46">
   O
  </tspan>
 </text>
 <text text-anchor="start" transform="matrix(-0.7596029084752799,0.6503871319728702,-0.6503871319728702,-0.7596029084752799,1588.6564452814887,1747.951376035579)">
  <tspan fill="rgb(0,0,0)" font-family="Courier" font-size="30" x="0" y="1200.46">
   L
  </tspan>
 </text>
 <text text-anchor="start" transform="matrix(-0.8782268507301088,0.47824428763621984,-0.47824428763621984,-0.8782268507301088,1333.372716671348,1924.3756241380343)">
  <tspan fill="rgb(0,0,0)" font-family="Courier" font-size="30" x="0" y="1200.46">
   O
  </tspan>
 </text>
 <text text-anchor="start" transform="matrix(-0.996819626387592,0.07969085548857757,-0.07969085548857757,-0.996819626387592,742.0153891884796,2101.2064311423674)">
  <tspan fill="rgb(0,0,0)" font-family="Courier" font-size="30" x="0" y="1200.46">
   0
  </tspan>
 </text>
 <text text-anchor="start" transform="matrix(-0.9916053864227361,-0.12930103486599248,0.12930103486599248,-0.9916053864227361,431.7869431740668,2093.8846352497967)">
  <tspan fill="rgb(0,0,0)" font-family="Courier" font-size="30" x="0" y="1200.46">
   3
  </tspan>
 </text>
 <text text-anchor="start" transform="matrix(-0.9430532328206412,-0.3326418495417218,0.3326418495417218,-0.9430532328206412,129.8600199895307,2022.2227174137902)">
  <tspan fill="rgb(0,0,0)" font-family="Courier" font-size="30" x="0" y="1200.46">
   ∙
  </tspan>
 </text>
 <text text-anchor="start" transform="matrix(-0.8532851276728026,-0.5214446191997854,0.5214446191997854,-0.8532851276728026,-150.56972501583175,1889.3526473158183)">
  <tspan fill="rgb(0,0,0)" font-family="Courier" font-size="30" x="0" y="1200.46">
   À
  </tspan>
 </text>
 <text text-anchor="start" transform="matrix(-0.7262243679293424,-0.6874577568299212,0.6874577568299212,-0.7262243679293424,-397.246166334073,1701.081484600499)">
  <tspan fill="rgb(0,0,0)" font-family="Courier" font-size="30" x="0" y="1200.46">
   
  </tspan>
 </text>
 <text text-anchor="start" transform="matrix(-0.5674241184962139,-0.8234256916982823,0.8234256916982823,-0.5674241184962139,-599.3883597947017,1465.6375825037553)">
  <tspan fill="rgb(0,0,0)" font-family="Courier" font-size="30" x="0" y="1200.46">
   B
  </tspan>
 </text>
 <text text-anchor="start" transform="matrix(-0.38382471228179227,-0.923405972604574,0.923405972604574,-0.38382471228179227,-748.1617215576168,1193.310969332414)">
  <tspan fill="rgb(0,0,0)" font-family="Courier" font-size="30" x="0" y="1200.46">
   E
  </tspan>
 </text>
 <text text-anchor="start" transform="matrix(-0.1834503243453427,-0.9830289815145781,0.9830289815145781,-0.1834503243453427,-837.0641418199871,896.0036248501335)">
  <tspan fill="rgb(0,0,0)" font-family="Courier" font-size="30" x="0" y="1200.46">
   I
  </tspan>
 </text>
 <text text-anchor="start" transform="matrix(0.02494172305731801,-0.9996889068359878,0.9996889068359878,0.02494172305731801,-862.2101582152036,586.7093066497155)">
  <tspan fill="rgb(0,0,0)" font-family="Courier" font-size="30" x="0" y="1200.46">
   R
  </tspan>
 </text>
 <text text-anchor="start" transform="matrix(0.23224369747871498,-0.9726576298890659,0.9726576298890659,0.23224369747871498,-822.5007691628211,278.9456605953094)">
  <tspan fill="rgb(0,0,0)" font-family="Courier" font-size="30" x="0" y="1200.46">
   A
  </tspan>
 </text>
 <text text-anchor="start" transform="matrix(0.6077806741409639,-0.7941049377385558,0.7941049377385558,0.6077806741409639,-593.9511034579314,-306.1915127818058)">
  <tspan fill="rgb(0,0,0)" font-family="Courier" font-size="30" x="0" y="1200.46">
   0
  </tspan>
 </text>
 <text text-anchor="start" transform="matrix(0.7596029084753142,-0.6503871319728302,0.6503871319728302,0.7596029084753142,-374.45929927630647,-538.6689399731191)">
  <tspan fill="rgb(0,0,0)" font-family="Courier" font-size="30" x="0" y="1200.46">
   4
  </tspan>
 </text>
 <text text-anchor="start" transform="matrix(0.878226850730134,-0.4782442876361736,0.4782442876361736,0.878226850730134,-111.42914267100718,-720.4312654770276)">
  <tspan fill="rgb(0,0,0)" font-family="Courier" font-size="30" x="0" y="1200.46">
   ∙
  </tspan>
 </text>
 <text text-anchor="start" transform="matrix(0.9584680654080586,-0.285199873059112,0.285199873059112,0.9584680654080586,183.6436863555894,-843.5346034766046)">
  <tspan fill="rgb(0,0,0)" font-family="Courier" font-size="30" x="0" y="1200.46">
   A
  </tspan>
 </text>
 <text text-anchor="start" transform="matrix(0.9968196263875947,-0.0796908554885461,0.0796908554885461,0.9968196263875947,497.8630892584849,-902.5987473859132)">
  <tspan fill="rgb(0,0,0)" font-family="Courier" font-size="30" x="0" y="1200.46">
   G
  </tspan>
 </text>
 <text text-anchor="start" transform="matrix(0.9916053864227306,0.1293010348660345,-0.1293010348660345,0.9916053864227306,817.4961703388662,-895.0423106949112)">
  <tspan fill="rgb(0,0,0)" font-family="Courier" font-size="30" x="0" y="1200.46">
   Ô
  </tspan>
 </text>
 <text text-anchor="start" transform="matrix(0.8532851276727714,0.5214446191998364,-0.5214446191998364,0.8532851276727714,1417.4992998238022,-684.2859111171455)">
  <tspan fill="rgb(0,0,0)" font-family="Courier" font-size="30" x="0" y="1200.46">
   0
  </tspan>
 </text>
 <text text-anchor="start" transform="matrix(0.726224367929294,0.6874577568299723,-0.6874577568299723,0.726224367929294,1671.646332335397,-490.2970142133461)">
  <tspan fill="rgb(0,0,0)" font-family="Courier" font-size="30" x="0" y="1200.46">
   5
  </tspan>
 </text>
 <text text-anchor="start" transform="matrix(0.5674241184961588,0.8234256916983201,-0.8234256916983201,0.5674241184961588,1879.9070828650824,-247.7071008921008)">
  <tspan fill="rgb(0,0,0)" font-family="Courier" font-size="30" x="0" y="1200.46">
   ∙
  </tspan>
 </text>
 <text text-anchor="start" transform="matrix(0.38382471228173054,0.9234059726045998,-0.9234059726045998,0.38382471228173054,2033.1795572687624,32.88148555889961)">
  <tspan fill="rgb(0,0,0)" font-family="Courier" font-size="30" x="0" y="1200.46">
   G
  </tspan>
 </text>
 <text text-anchor="start" transform="matrix(0.18345032434527692,0.9830289815145904,-0.9830289815145904,0.18345032434527692,2124.765012932062,339.2056774983266)">
  <tspan fill="rgb(0,0,0)" font-family="Courier" font-size="30" x="0" y="1200.46">
   R
  </tspan>
 </text>
 <text text-anchor="start" transform="matrix(-0.024941723057388454,0.999688906835986,-0.999688906835986,-0.024941723057388454,2150.6607259667207,657.8776378318705)">
  <tspan fill="rgb(0,0,0)" font-family="Courier" font-size="30" x="0" y="1200.46">
   Ã
  </tspan>
 </text>
 <text text-anchor="start" transform="matrix(-0.23224369747877316,0.9726576298890521,-0.9726576298890521,-0.23224369747877316,2109.734929451708,974.969872735224)">
  <tspan fill="rgb(0,0,0)" font-family="Courier" font-size="30" x="0" y="1200.46">
   O
  </tspan>
 </text>
 <text text-anchor="start" transform="matrix(-0.6077806741410227,0.7941049377385109,-0.7941049377385109,-0.6077806741410227,1873.150392599996,1577.0062100621417)">
  <tspan fill="rgb(0,0,0)" font-family="Courier" font-size="30" x="0" y="1200.46">
   0
  </tspan>
 </text>
 <text text-anchor="start" transform="matrix(-0.7596029084753576,0.6503871319727794,-0.6503871319727794,-0.7596029084753576,1647.191287158902,1816.3156377984785)">
  <tspan fill="rgb(0,0,0)" font-family="Courier" font-size="30" x="0" y="1200.46">
   6
  </tspan>
 </text>
 <text text-anchor="start" transform="matrix(-0.8782268507301694,0.4782442876361086,-0.4782442876361086,-0.8782268507301694,1376.414702558433,2003.4160407038396)">
  <tspan fill="rgb(0,0,0)" font-family="Courier" font-size="30" x="0" y="1200.46">
   ∙
  </tspan>
 </text>
 <text text-anchor="start" transform="matrix(-0.9584680654080797,0.28519987305904115,-0.28519987305904115,-0.9584680654080797,1072.6548748758592,2130.1302333639005)">
  <tspan fill="rgb(0,0,0)" font-family="Courier" font-size="30" x="0" y="1200.46">
   C
  </tspan>
 </text>
 <text text-anchor="start" transform="matrix(-0.9968196263876011,0.07969085548846522,-0.07969085548846522,-0.9968196263876011,749.1875661822748,2190.9201975172655)">
  <tspan fill="rgb(0,0,0)" font-family="Courier" font-size="30" x="0" y="1200.46">
   O
  </tspan>
 </text>
 <text text-anchor="start" transform="matrix(-0.991605386422721,-0.12930103486610778,0.12930103486610778,-0.991605386422721,420.149850035947,2183.129120027819)">
  <tspan fill="rgb(0,0,0)" font-family="Courier" font-size="30" x="0" y="1200.46">
   R
  </tspan>
 </text>
 <text text-anchor="start" transform="matrix(-0.9430532328206038,-0.3326418495418281,0.3326418495418281,-0.9430532328206038,99.92225353060837,2107.0975083675894)">
  <tspan fill="rgb(0,0,0)" font-family="Courier" font-size="30" x="0" y="1200.46">
   T
  </tspan>
 </text>
 <text text-anchor="start" transform="matrix(-0.8532851276727438,-0.5214446191998816,0.5214446191998816,-0.8532851276727438,-197.4997407439639,1966.1483088062782)">
  <tspan fill="rgb(0,0,0)" font-family="Courier" font-size="30" x="0" y="1200.46">
   E
  </tspan>
 </text>
 <text text-anchor="start" transform="matrix(-0.7262243679292675,-0.6874577568300004,0.6874577568300004,-0.7262243679292675,-459.11736444889186,1766.441677714021)">
  <tspan fill="rgb(0,0,0)" font-family="Courier" font-size="30" x="0" y="1200.46">
   J
  </tspan>
 </text>
 <text text-anchor="start" transform="matrix(-0.5674241184961212,-0.8234256916983463,0.8234256916983463,-0.5674241184961212,-673.496672047648,1516.705753168269)">
  <tspan fill="rgb(0,0,0)" font-family="Courier" font-size="30" x="0" y="1200.46">
   O
  </tspan>
 </text>
 <text text-anchor="start" transform="matrix(-0.1834503243452112,-0.9830289815146026,0.9830289815146026,-0.1834503243452112,-925.536750156338,912.5141540410075)">
  <tspan fill="rgb(0,0,0)" font-family="Courier" font-size="30" x="0" y="1200.46">
   0
  </tspan>
 </text>
 <text text-anchor="start" transform="matrix(0.0249417230574554,-0.9996889068359843,0.9996889068359843,0.0249417230574554,-952.1821598304375,584.4645515743417)">
  <tspan fill="rgb(0,0,0)" font-family="Courier" font-size="30" x="0" y="1200.46">
   7
  </tspan>
 </text>
 <text text-anchor="start" transform="matrix(0.23224369747884516,-0.9726576298890348,0.9726576298890348,0.23224369747884516,-910.0399558527884,258.0437278220201)">
  <tspan fill="rgb(0,0,0)" font-family="Courier" font-size="30" x="0" y="1200.46">
   ∙
  </tspan>
 </text>
 <text text-anchor="start" transform="matrix(0.4293955078915048,-0.9031165471867939,0.9031165471867939,0.4293955078915048,-800.9519547579451,-52.48216087708545)">
  <tspan fill="rgb(0,0,0)" font-family="Courier" font-size="30" x="0" y="1200.46">
   I
  </tspan>
 </text>
 <text text-anchor="start" transform="matrix(0.6077806741410533,-0.7941049377384873,0.7941049377384873,0.6077806741410533,-629.6858256560588,-333.54164311828987)">
  <tspan fill="rgb(0,0,0)" font-family="Courier" font-size="30" x="0" y="1200.46">
   P
  </tspan>
 </text>
 <text text-anchor="start" transform="matrix(0.7596029084753828,-0.65038713197275,0.65038713197275,0.7596029084753828,-403.7267202149558,-572.851070854618)">
  <tspan fill="rgb(0,0,0)" font-family="Courier" font-size="30" x="0" y="1200.46">
   U
  </tspan>
 </text>
 <text text-anchor="start" transform="matrix(0.8782268507301845,-0.47824428763608084,0.47824428763608084,0.8782268507301845,-132.95013561448684,-759.9514737599644)">
  <tspan fill="rgb(0,0,0)" font-family="Courier" font-size="30" x="0" y="1200.46">
   A
  </tspan>
 </text>
 <text text-anchor="start" transform="matrix(0.9584680654080928,-0.28519987305899713,0.28519987305899713,0.9584680654080928,170.8096920681075,-886.6656664200207)">
  <tspan fill="rgb(0,0,0)" font-family="Courier" font-size="30" x="0" y="1200.46">
   N
  </tspan>
 </text>
 <text text-anchor="start" transform="matrix(0.9916053864227123,0.1293010348661741,-0.1293010348661741,0.9916053864227123,829.1332634770323,-984.2867954729284)">
  <tspan fill="rgb(0,0,0)" font-family="Courier" font-size="30" x="0" y="1200.46">
   0
  </tspan>
 </text>
 <text text-anchor="start" transform="matrix(0.9430532328205863,0.33264184954187787,-0.33264184954187787,0.9430532328205863,1158.5111966427573,-906.0703369005872)">
  <tspan fill="rgb(0,0,0)" font-family="Courier" font-size="30" x="0" y="1200.46">
   8
  </tspan>
 </text>
 <text text-anchor="start" transform="matrix(0.8532851276727162,0.5214446191999265,-0.5214446191999265,0.8532851276727162,1464.429315551934,-761.0815726076056)">
  <tspan fill="rgb(0,0,0)" font-family="Courier" font-size="30" x="0" y="1200.46">
   ∙
  </tspan>
 </text>
 <text text-anchor="start" transform="matrix(0.7262243679292263,0.687457756830044,-0.687457756830044,0.7262243679292263,1733.5175304502127,-555.657207326871)">
  <tspan fill="rgb(0,0,0)" font-family="Courier" font-size="30" x="0" y="1200.46">
   X
  </tspan>
 </text>
 <text text-anchor="start" transform="matrix(0.5674241184960778,0.8234256916983761,-0.8234256916983761,0.5674241184960778,1954.0153951180237,-298.77527155662165)">
  <tspan fill="rgb(0,0,0)" font-family="Courier" font-size="30" x="0" y="1200.46">
   I
  </tspan>
 </text>
 <text text-anchor="start" transform="matrix(0.3838247122816396,0.9234059726046376,-0.9234059726046376,0.3838247122816396,2116.2860948032385,-1.6627385463063433)">
  <tspan fill="rgb(0,0,0)" font-family="Courier" font-size="30" x="0" y="1200.46">
   R
  </tspan>
 </text>
 <text text-anchor="start" transform="matrix(0.1834503243451801,0.9830289815146084,-0.9830289815146084,0.1834503243451801,2213.2376212684053,322.6951483074112)">
  <tspan fill="rgb(0,0,0)" font-family="Courier" font-size="30" x="0" y="1200.46">
   Ê
  </tspan>
 </text>
 <text text-anchor="start" transform="matrix(-0.23224369747889645,0.9726576298890226,-0.9726576298890226,-0.23224369747889645,2197.2741161416748,995.8718055085138)">
  <tspan fill="rgb(0,0,0)" font-family="Courier" font-size="30" x="0" y="1200.46">
   0
  </tspan>
 </text>
 <text text-anchor="start" transform="matrix(-0.42939550789155245,0.9031165471867714,-0.9031165471867714,-0.42939550789155245,2085.056766325213,1315.269525676183)">
  <tspan fill="rgb(0,0,0)" font-family="Courier" font-size="30" x="0" y="1200.46">
   9
  </tspan>
 </text>
 <text text-anchor="start" transform="matrix(-0.6077806741410952,0.7941049377384553,-0.7941049377384553,-0.6077806741410952,1908.8851147981372,1604.3563403986075)">
  <tspan fill="rgb(0,0,0)" font-family="Courier" font-size="30" x="0" y="1200.46">
   ∙
  </tspan>
 </text>
 <text text-anchor="start" transform="matrix(-0.7596029084754217,0.6503871319727046,-0.6503871319727046,-0.7596029084754217,1676.458708097556,1850.4977686799737)">
  <tspan fill="rgb(0,0,0)" font-family="Courier" font-size="30" x="0" y="1200.46">
   J
  </tspan>
 </text>
 <text text-anchor="start" transform="matrix(-0.8782268507302199,0.47824428763601584,-0.47824428763601584,-0.8782268507302199,1397.9356955019102,2042.9362489867776)">
  <tspan fill="rgb(0,0,0)" font-family="Courier" font-size="30" x="0" y="1200.46">
   D
  </tspan>
 </text>
 <text text-anchor="start" transform="matrix(-0.9584680654081098,0.2851998730589399,-0.2851998730589399,-0.9584680654081098,1085.488869163355,2173.2612963073125)">
  <tspan fill="rgb(0,0,0)" font-family="Courier" font-size="30" x="0" y="1200.46">
   U
  </tspan>
 </text>
 <text text-anchor="start" transform="matrix(-0.9968196263876097,0.07969085548835991,-0.07969085548835991,-0.9968196263876097,752.7736546790884,2235.777080704721)">
  <tspan fill="rgb(0,0,0)" font-family="Courier" font-size="30" x="0" y="1200.46">
   
  </tspan>
 </text>
 <text text-anchor="start" transform="matrix(-0.9916053864227072,-0.12930103486621253,0.12930103486621253,-0.9916053864227072,414.33130346680565,2227.7513624168205)">
  <tspan fill="rgb(0,0,0)" font-family="Courier" font-size="30" x="0" y="1200.46">
   T
  </tspan>
 </text>
 <text text-anchor="start" transform="matrix(-0.9430532328205687,-0.3326418495419277,0.3326418495419277,-0.9430532328205687,84.95337030106765,2149.5349038444606)">
  <tspan fill="rgb(0,0,0)" font-family="Courier" font-size="30" x="0" y="1200.46">
   I
  </tspan>
 </text>
 <text text-anchor="start" transform="matrix(-0.8532851276726887,-0.5214446191999716,0.5214446191999716,-0.8532851276726887,-220.9647486081019,2004.5461395514644)">
  <tspan fill="rgb(0,0,0)" font-family="Courier" font-size="30" x="0" y="1200.46">
   B
  </tspan>
 </text>
 <text text-anchor="start" transform="matrix(-0.72622436792919,-0.6874577568300824,0.6874577568300824,-0.72622436792919,-490.0529635063705,1799.1217742707165)">
  <tspan fill="rgb(0,0,0)" font-family="Courier" font-size="30" x="0" y="1200.46">
   I
  </tspan>
 </text>
 <text text-anchor="start" transform="matrix(-0.5674241184960459,-0.8234256916983982,0.8234256916983982,-0.5674241184960459,-710.5508281741595,1542.2398385004701)">
  <tspan fill="rgb(0,0,0)" font-family="Courier" font-size="30" x="0" y="1200.46">
   Á
  </tspan>
 </text>
 <text text-anchor="start" transform="matrix(-0.18345032434510733,-0.983028981514622,0.983028981514622,-0.18345032434510733,-1014.0093584926841,929.024683231907)">
  <tspan fill="rgb(0,0,0)" font-family="Courier" font-size="30" x="0" y="1200.46">
   1
  </tspan>
 </text>
 <text text-anchor="start" transform="matrix(0.024941723057560816,-0.9996889068359818,0.9996889068359818,0.024941723057560816,-1042.1541614456721,582.2197964989987)">
  <tspan fill="rgb(0,0,0)" font-family="Courier" font-size="30" x="0" y="1200.46">
   0
  </tspan>
 </text>
 <text text-anchor="start" transform="matrix(0.23224369747894774,-0.9726576298890104,0.9726576298890104,0.23224369747894774,-997.5791425427619,237.1417950487567)">
  <tspan fill="rgb(0,0,0)" font-family="Courier" font-size="30" x="0" y="1200.46">
   ∙
  </tspan>
 </text>
 <text text-anchor="start" transform="matrix(0.4293955078916002,-0.9031165471867487,0.9031165471867487,0.4293955078916002,-882.232444004683,-91.12775658747671)">
  <tspan fill="rgb(0,0,0)" font-family="Courier" font-size="30" x="0" y="1200.46">
   D
  </tspan>
 </text>
 <text text-anchor="start" transform="matrix(0.6077806741411372,-0.7941049377384232,0.7941049377384232,0.6077806741411372,-701.1552700524182,-388.2419037911217)">
  <tspan fill="rgb(0,0,0)" font-family="Courier" font-size="30" x="0" y="1200.46">
   E
  </tspan>
 </text>
 <text text-anchor="start" transform="matrix(0.7596029084754561,-0.6503871319726644,0.6503871319726644,0.7596029084754561,-462.2615620923657,-641.2153326175207)">
  <tspan fill="rgb(0,0,0)" font-family="Courier" font-size="30" x="0" y="1200.46">
   
  </tspan>
 </text>
 <text text-anchor="start" transform="matrix(0.8782268507302383,-0.47824428763598187,0.47824428763598187,0.8782268507302383,-175.9921215015748,-838.991890325768)">
  <tspan fill="rgb(0,0,0)" font-family="Courier" font-size="30" x="0" y="1200.46">
   L
  </tspan>
 </text>
 <text text-anchor="start" transform="matrix(0.9584680654081168,-0.28519987305891636,0.28519987305891636,0.9584680654081168,145.14170349293772,-972.9277923067907)">
  <tspan fill="rgb(0,0,0)" font-family="Courier" font-size="30" x="0" y="1200.46">
   Á
  </tspan>
 </text>
 <text text-anchor="start" transform="matrix(0.9968196263876116,-0.07969085548833549,0.07969085548833549,0.9968196263876116,487.10482376788235,-1037.1693969482671)">
  <tspan fill="rgb(0,0,0)" font-family="Courier" font-size="30" x="0" y="1200.46">
   
  </tspan>
 </text>
 <text text-anchor="start" transform="matrix(0.9916053864227041,0.1293010348662369,-0.1293010348662369,0.9916053864227041,834.9518100461207,-1028.909037861936)">
  <tspan fill="rgb(0,0,0)" font-family="Courier" font-size="30" x="0" y="1200.46">
   E
  </tspan>
 </text>
 <text text-anchor="start" transform="matrix(0.9430532328205605,0.33264184954195086,-0.33264184954195086,0.9430532328205605,1173.4800798722636,-948.5077323774706)">
  <tspan fill="rgb(0,0,0)" font-family="Courier" font-size="30" x="0" y="1200.46">
   
  </tspan>
 </text>
 <text text-anchor="start" transform="matrix(0.853285127672676,0.5214446191999925,-0.5214446191999925,0.853285127672676,1487.8943234160408,-799.4794033528107)">
  <tspan fill="rgb(0,0,0)" font-family="Courier" font-size="30" x="0" y="1200.46">
   D
  </tspan>
 </text>
 <text text-anchor="start" transform="matrix(0.7262243679291731,0.6874577568301002,-0.6874577568301002,0.7262243679291731,1764.4531295076586,-588.3373038835975)">
  <tspan fill="rgb(0,0,0)" font-family="Courier" font-size="30" x="0" y="1200.46">
   E
  </tspan>
 </text>
 <text text-anchor="start" transform="matrix(0.5674241184960023,0.8234256916984282,-0.8234256916984282,0.5674241184960023,1991.0695512445338,-324.30935688882494)">
  <tspan fill="rgb(0,0,0)" font-family="Courier" font-size="30" x="0" y="1200.46">
   
  </tspan>
 </text>
 <text text-anchor="start" transform="matrix(0.383824712281555,0.9234059726046727,-0.9234059726046727,0.383824712281555,2157.8393635705033,-18.934850598845344)">
  <tspan fill="rgb(0,0,0)" font-family="Courier" font-size="30" x="0" y="1200.46">
   C
  </tspan>
 </text>
 <text text-anchor="start" transform="matrix(0.18345032434509,0.9830289815146253,-0.9830289815146253,0.18345032434509,2257.4739254365895,314.4398837120218)">
  <tspan fill="rgb(0,0,0)" font-family="Courier" font-size="30" x="0" y="1200.46">
   Á
  </tspan>
 </text>
 <text text-anchor="start" transform="matrix(-0.2322436974789716,0.9726576298890047,-0.9726576298890047,-0.2322436974789716,2284.8133028316565,1016.7737382817436)">
  <tspan fill="rgb(0,0,0)" font-family="Courier" font-size="30" x="0" y="1200.46">
   1
  </tspan>
 </text>
 <text text-anchor="start" transform="matrix(-0.42939550789162234,0.9031165471867382,-0.9031165471867382,-0.42939550789162234,2166.337255571966,1353.9151213865428)">
  <tspan fill="rgb(0,0,0)" font-family="Courier" font-size="30" x="0" y="1200.46">
   1
  </tspan>
 </text>
 <text text-anchor="start" transform="matrix(-0.6077806741411566,0.7941049377384082,-0.7941049377384082,-0.6077806741411566,1980.3545591945176,1659.0566010714117)">
  <tspan fill="rgb(0,0,0)" font-family="Courier" font-size="30" x="0" y="1200.46">
   ∙
  </tspan>
 </text>
 <text text-anchor="start" transform="matrix(-0.7596029084754721,0.6503871319726457,-0.6503871319726457,-0.7596029084754721,1734.9935499749986,1918.8620304428482)">
  <tspan fill="rgb(0,0,0)" font-family="Courier" font-size="30" x="0" y="1200.46">
   A
  </tspan>
 </text>
 <text text-anchor="start" transform="matrix(-0.8782268507302501,0.47824428763596033,-0.47824428763596033,-0.8782268507302501,1440.9776813890512,2121.9766655525523)">
  <tspan fill="rgb(0,0,0)" font-family="Courier" font-size="30" x="0" y="1200.46">
   B
  </tspan>
 </text>
 <text text-anchor="start" transform="matrix(-0.9584680654081319,0.2851998730588656,-0.2851998730588656,-0.9584680654081319,1111.1568577385337,2259.52342219408)">
  <tspan fill="rgb(0,0,0)" font-family="Courier" font-size="30" x="0" y="1200.46">
   R
  </tspan>
 </text>
 <text text-anchor="start" transform="matrix(-0.9968196263876157,0.07969085548828275,-0.07969085548828275,-0.9968196263876157,759.9458316729097,2325.4908470796163)">
  <tspan fill="rgb(0,0,0)" font-family="Courier" font-size="30" x="0" y="1200.46">
   A
  </tspan>
 </text>
 <text text-anchor="start" transform="matrix(-0.9916053864226972,-0.12930103486628935,0.12930103486628935,-0.9916053864226972,402.69421032871594,2316.995847194847)">
  <tspan fill="rgb(0,0,0)" font-family="Courier" font-size="30" x="0" y="1200.46">
   N
  </tspan>
 </text>
 <text text-anchor="start" transform="matrix(-0.943053232820543,-0.33264184954200077,0.33264184954200077,-0.943053232820543,55.015603842170094,2234.4096947982684)">
  <tspan fill="rgb(0,0,0)" font-family="Courier" font-size="30" x="0" y="1200.46">
   D
  </tspan>
 </text>
 <text text-anchor="start" transform="matrix(-0.8532851276726483,-0.5214446192000376,0.5214446192000376,-0.8532851276726483,-267.8947643362116,2081.3418010419377)">
  <tspan fill="rgb(0,0,0)" font-family="Courier" font-size="30" x="0" y="1200.46">
   A
  </tspan>
 </text>
 <text text-anchor="start" transform="matrix(-0.7262243679291367,-0.6874577568301387,0.6874577568301387,-0.7262243679291367,-551.9241616211735,1864.4819673842533)">
  <tspan fill="rgb(0,0,0)" font-family="Courier" font-size="30" x="0" y="1200.46">
   M
  </tspan>
 </text>
 <text text-anchor="start" transform="matrix(-0.5674241184959704,-0.8234256916984501,0.8234256916984501,-0.5674241184959704,-784.6591404271005,1593.3080091649908)">
  <tspan fill="rgb(0,0,0)" font-family="Courier" font-size="30" x="0" y="1200.46">
   E
  </tspan>
 </text>
 <text text-anchor="start" transform="matrix(-0.38382471228153237,-0.9234059726046822,0.9234059726046822,-0.38382471228153237,-955.9280653938326,1279.6715295953704)">
  <tspan fill="rgb(0,0,0)" font-family="Courier" font-size="30" x="0" y="1200.46">
   N
  </tspan>
 </text>
 <text text-anchor="start" transform="matrix(-0.18345032434506592,-0.9830289815146297,0.9830289815146297,-0.18345032434506592,-1058.2456626608566,937.2799478273594)">
  <tspan fill="rgb(0,0,0)" font-family="Courier" font-size="30" x="0" y="1200.46">
   T
  </tspan>
 </text>
 <text text-anchor="start" transform="matrix(0.024941723057603005,-0.9996889068359807,0.9996889068359807,0.024941723057603005,-1087.1401622532894,581.0974189613296)">
  <tspan fill="rgb(0,0,0)" font-family="Courier" font-size="30" x="0" y="1200.46">
   O
  </tspan>
 </text>
 <text text-anchor="start" transform="matrix(0.4293955078916701,-0.9031165471867155,0.9031165471867155,0.4293955078916701,-922.8726886280303,-110.45055444271793)">
  <tspan fill="rgb(0,0,0)" font-family="Courier" font-size="30" x="0" y="1200.46">
   1
  </tspan>
 </text>
 <text text-anchor="start" transform="matrix(0.6077806741411986,-0.7941049377383761,0.7941049377383761,0.6077806741411986,-736.8899922505673,-415.59203412757773)">
  <tspan fill="rgb(0,0,0)" font-family="Courier" font-size="30" x="0" y="1200.46">
   2
  </tspan>
 </text>
 <text text-anchor="start" transform="matrix(0.7596029084755065,-0.6503871319726056,0.6503871319726056,0.7596029084755065,-491.5289830310354,-675.3974634990022)">
  <tspan fill="rgb(0,0,0)" font-family="Courier" font-size="30" x="0" y="1200.46">
   ∙
  </tspan>
 </text>
 <text text-anchor="start" transform="matrix(0.8782268507302754,-0.47824428763591387,0.47824428763591387,0.8782268507302754,-197.51311444507826,-878.5120986086921)">
  <tspan fill="rgb(0,0,0)" font-family="Courier" font-size="30" x="0" y="1200.46">
   D
  </tspan>
 </text>
 <text text-anchor="start" transform="matrix(0.958468065408143,-0.2851998730588286,0.2851998730588286,0.958468065408143,132.30770920542977,-1016.0588552501989)">
  <tspan fill="rgb(0,0,0)" font-family="Courier" font-size="30" x="0" y="1200.46">
   A
  </tspan>
 </text>
 <text text-anchor="start" transform="matrix(0.9968196263876177,-0.07969085548825833,0.07969085548825833,0.9968196263876177,483.5187352710394,-1082.0262801357203)">
  <tspan fill="rgb(0,0,0)" font-family="Courier" font-size="30" x="0" y="1200.46">
   S
  </tspan>
 </text>
 <text text-anchor="start" transform="matrix(0.991605386422694,0.1293010348663136,-0.1293010348663136,0.991605386422694,840.7703566152327,-1073.5312802509407)">
  <tspan fill="rgb(0,0,0)" font-family="Courier" font-size="30" x="0" y="1200.46">
   
  </tspan>
 </text>
 <text text-anchor="start" transform="matrix(0.9430532328205348,0.3326418495420238,-0.3326418495420238,0.9430532328205348,1188.4489631017764,-990.9451278543519)">
  <tspan fill="rgb(0,0,0)" font-family="Courier" font-size="30" x="0" y="1200.46">
   Á
  </tspan>
 </text>
 <text text-anchor="start" transform="matrix(0.8532851276726356,0.5214446192000586,-0.5214446192000586,0.8532851276726356,1511.3593312801536,-837.8772340980122)">
  <tspan fill="rgb(0,0,0)" font-family="Courier" font-size="30" x="0" y="1200.46">
   G
  </tspan>
 </text>
 <text text-anchor="start" transform="matrix(0.7262243679291198,0.6874577568301564,-0.6874577568301564,0.7262243679291198,1795.3887285651094,-621.0174004403193)">
  <tspan fill="rgb(0,0,0)" font-family="Courier" font-size="30" x="0" y="1200.46">
   U
  </tspan>
 </text>
 <text text-anchor="start" transform="matrix(0.5674241184959503,0.823425691698464,-0.823425691698464,0.5674241184959503,2028.1237073710283,-349.84344222105045)">
  <tspan fill="rgb(0,0,0)" font-family="Courier" font-size="30" x="0" y="1200.46">
   A
  </tspan>
 </text>
 <text text-anchor="start" transform="matrix(0.38382471228148346,0.9234059726047025,-0.9234059726047025,0.38382471228148346,2199.3926323377646,-36.20696265139344)">
  <tspan fill="rgb(0,0,0)" font-family="Courier" font-size="30" x="0" y="1200.46">
   S
  </tspan>
 </text>
</svg>